<svg width="9" height="10" viewBox="0 0 9 10" fill="none" xmlns="http://www.w3.org/2000/svg">
    <path d="M8.7185 3.41087C8.66939 3.43872 7.50026 4.02655 7.50026 5.32991C7.55536 6.81631 8.97564 7.33758 9 7.33758C8.97564 7.36543 8.78558 8.04768 8.22258 8.76284C7.77577 9.37889 7.27985 10 6.52679 10C5.81046 10 5.55332 9.58942 4.72679 9.58942C3.83916 9.58942 3.58801 10 2.90841 10C2.15535 10 1.6227 9.34561 1.15153 8.73535C0.539419 7.93662 0.0191429 6.68319 0.000775505 5.47967C-0.0116025 4.84192 0.123358 4.21502 0.46595 3.68254C0.949491 2.93916 1.81276 2.43452 2.75549 2.41788C3.4778 2.39582 4.12066 2.86717 4.56148 2.86717C4.98393 2.86717 5.77373 2.41788 6.66734 2.41788C7.05306 2.41825 8.08163 2.52351 8.7185 3.41087ZM4.50039 2.29055C4.37182 1.70815 4.72679 1.12574 5.0574 0.754232C5.47985 0.304949 6.14706 0 6.72244 0C6.75918 0.582405 6.52639 1.1536 6.11033 1.5696C5.73699 2.01888 5.09413 2.35711 4.50039 2.29055Z" fill="#181D27"/>
</svg>
