<svg width="118" height="26" viewBox="0 0 118 26" fill="none" xmlns="http://www.w3.org/2000/svg">
    <path d="M4.9445 13.3714C4.9445 13.3714 4.9445 7.63773 8.57071 7.63773H15.5069C15.5069 7.63773 15.6685 7.0584 16.365 6.93743C16.4432 6.9238 16.5142 6.98514 16.5142 7.06011C16.5178 7.25435 16.5054 7.58662 16.4076 7.63603H22.0788C20.0427 4.38667 16.2104 2.19714 11.8185 2.19714C5.29095 2.19714 0 7.03455 0 12.9999C0 18.9653 5.29095 23.8027 11.8185 23.8027C15.8853 23.8027 19.4724 21.925 21.5991 19.0676H8.80345C8.80345 19.0676 5.17725 19.5856 4.94628 13.3714H4.9445ZM16.4076 19.0795C16.5054 19.1289 16.5178 19.4612 16.5142 19.6554C16.5142 19.7321 16.4432 19.7917 16.365 19.7781C15.6685 19.6588 15.5069 19.0778 15.5069 19.0778H16.4076V19.0795Z" fill="#0D1015"/>
    <path d="M16.4076 7.63777H15.5068C15.5068 7.63777 15.6685 7.05844 16.365 6.93916C16.4431 6.92553 16.5142 6.98687 16.5142 7.06185C16.5178 7.25609 16.5053 7.58835 16.4076 7.63777Z" fill="white"/>
    <path d="M16.5142 19.6555C16.5142 19.7322 16.4431 19.7918 16.365 19.7782C15.6685 19.6589 15.5068 19.0779 15.5068 19.0779H16.4076C16.5053 19.129 16.5178 19.4613 16.5142 19.6538V19.6555Z" fill="white"/>
    <path d="M23.6352 13.0016C23.6352 15.2508 22.8837 17.3398 21.5973 19.0693H8.80169C8.80169 19.0693 5.17549 19.5873 4.94452 13.3731C4.94452 13.3731 4.94452 7.63943 8.57072 7.63943H22.0788C23.0702 9.22066 23.637 11.0507 23.637 13.0033L23.6352 13.0016Z" fill="white"/>
    <path d="M23.6352 13.0016C23.6352 15.2508 22.8837 17.3398 21.5973 19.0693H8.80169C8.80169 19.0693 5.17549 19.5873 4.94452 13.3731C4.94452 13.3731 4.94452 7.63943 8.57072 7.63943H22.0788C23.0702 9.22066 23.637 11.0507 23.637 13.0033L23.6352 13.0016Z" fill="white"/>
    <path d="M6.07983 16.597L8.82658 18.6076C8.82658 18.6076 7.01437 19.2994 6.07983 16.597Z" fill="#0D1015"/>
    <path d="M8.82835 8.02973C8.82835 8.02973 7.01614 7.33794 6.0816 10.0403L8.82835 8.02973Z" fill="#0D1015"/>
    <path d="M18.1613 17.1984C18.1613 17.1984 16.8039 13.6458 18.0724 9.50186L13.7693 8.63968C13.7693 8.63968 10.4007 12.9369 13.7693 17.9771L18.1613 17.1984Z" fill="#0D1015"/>
    <path d="M16.4077 7.63777H15.5069C15.5069 7.63777 15.6686 7.05844 16.365 6.93916C16.4432 6.92553 16.5143 6.98687 16.5143 7.06185C16.5178 7.25609 16.5054 7.58835 16.4077 7.63777Z" fill="white"/>
    <path d="M16.5143 19.6555C16.5143 19.7322 16.4432 19.7918 16.365 19.7782C15.6686 19.6589 15.5069 19.0779 15.5069 19.0779H16.4077C16.5054 19.129 16.5178 19.4613 16.5143 19.6538V19.6555Z" fill="white"/>
    <path d="M23.6387 16.1939C23.6387 12.7452 27.0269 11.2765 30.2391 11.2765C31.2714 11.2765 32.2716 11.4179 33.215 11.7859V11.0515C33.215 9.83664 32.5079 8.87564 31.1523 8.87564C30.6815 8.87564 30.2675 8.9881 29.914 9.21472C29.5604 9.4686 29.3241 9.78042 29.1767 10.1468L24.1966 9.41237C24.8451 6.38793 28.2919 4.80499 31.2696 4.80499C35.2778 4.80499 38.5771 7.20751 38.5771 11.3327V20.4333H33.6272L33.4798 18.6527C32.6554 20.2067 30.7988 20.8575 29.0594 20.8575C26.2895 20.8575 23.637 19.077 23.637 16.1939H23.6387ZM30.7401 17.1549C32.0655 17.1549 33.215 16.2502 33.215 14.9228V14.7524C32.6252 14.4985 31.9483 14.3571 31.3282 14.3571C30.3564 14.3571 29.0292 14.6672 29.0292 15.8276C29.0292 16.6761 29.9424 17.1566 30.7384 17.1566L30.7401 17.1549Z" fill="#0D1015"/>
    <path d="M46.3287 5.22762L46.5064 7.68637C47.185 6.10343 48.4802 5.02997 50.3369 5.02997C50.8379 5.02997 51.3087 5.11516 51.6925 5.28385L51.1613 10.5694C50.7491 10.428 50.3067 10.3717 49.8056 10.3717C47.7731 10.3717 46.7409 11.389 46.7409 13.4524V20.4333H41.2296V5.22762H46.3269H46.3287Z" fill="#0D1015"/>
    <path d="M60.8282 4.80331C65.9557 4.80331 68.9316 8.30826 68.9316 13.1968V14.1578H58.3533C58.6482 15.5431 59.5028 16.6455 61.0947 16.6455C62.1269 16.6455 62.9815 16.2212 63.5998 15.3454L68.6385 16.4189C67.4001 19.3581 64.1008 20.8559 60.917 20.8559C56.0844 20.8559 52.7247 17.4651 52.7247 12.7725C52.7247 8.36279 56.0542 4.80331 60.8282 4.80331ZM58.2928 10.9919H63.2445C63.0082 9.69184 62.3597 8.56214 60.8282 8.56214C59.2967 8.56214 58.5291 9.66458 58.2928 10.9919Z" fill="#0D1015"/>
    <path d="M76.0952 5.22759L76.2426 7.29103C77.2145 5.6229 78.8064 4.80331 80.7803 4.80331C84.5522 4.80331 86.2613 7.79879 86.2613 11.1623V20.4316H80.7501V11.9529C80.7501 10.7653 80.1904 9.57938 78.7762 9.57938C77.3619 9.57938 76.5074 10.6528 76.5074 11.9529V20.4316H70.9961V5.22759H76.0952Z" fill="#0D1015"/>
    <path d="M90.2696 5.2276V0H95.7808V5.2276H99.6113V9.26928H95.7808V14.6962C95.7808 15.9111 96.3405 16.5331 97.4314 16.5331C98.1101 16.5331 98.787 16.3627 99.4053 16.1088L100.143 19.8676C98.9931 20.5185 97.6375 20.8576 96.0171 20.8576C92.215 20.8576 90.2713 18.7941 90.2713 15.2057V9.27098H87.7378V5.22931H90.2713L90.2696 5.2276Z" fill="#0D1015"/>
    <path d="M106.832 5.22763L109.749 15.1188L112.254 5.22763H118L111.901 21.1677C110.781 24.0507 109.072 26 105.654 26C104.387 26 103.268 25.7461 102.353 25.2656L103.238 21.3654C103.797 21.563 104.415 21.7334 105.005 21.7334C106.125 21.7334 106.714 21.1967 107.185 20.2629L100.88 5.22763H106.832Z" fill="#0D1015"/>
</svg>
