<svg width="14" height="14" viewBox="0 0 14 14" fill="none" xmlns="http://www.w3.org/2000/svg">
    <g clip-path="url(#clip0_143_23)">
        <path d="M6.99998 4.08333C8.60998 4.08333 9.91665 5.39 9.91665 7C9.91665 7.37917 9.84081 7.735 9.70665 8.0675L11.41 9.77083C12.2908 9.03583 12.985 8.085 13.4108 7C12.4016 4.43917 9.91081 2.625 6.99415 2.625C6.17748 2.625 5.39581 2.77083 4.67248 3.03333L5.93248 4.29333C6.26498 4.15917 6.62081 4.08333 6.99998 4.08333ZM1.16665 2.49083L2.49665 3.82083L2.76498 4.08917C1.79665 4.84167 1.03831 5.845 0.583313 7C1.59248 9.56083 4.08331 11.375 6.99998 11.375C7.90415 11.375 8.76748 11.2 9.55498 10.885L9.79998 11.13L11.5091 12.8333L12.25 12.0925L1.90748 1.75L1.16665 2.49083ZM4.39248 5.71667L5.29665 6.62083C5.26748 6.74333 5.24998 6.87167 5.24998 7C5.24998 7.96833 6.03165 8.75 6.99998 8.75C7.12831 8.75 7.25665 8.7325 7.37915 8.70333L8.28331 9.6075C7.89248 9.8 7.46081 9.91667 6.99998 9.91667C5.38998 9.91667 4.08331 8.61 4.08331 7C4.08331 6.53917 4.19998 6.1075 4.39248 5.71667V5.71667ZM6.90665 5.26167L8.74415 7.09917L8.75581 7.00583C8.75581 6.0375 7.97415 5.25583 7.00581 5.25583L6.90665 5.26167Z" fill="#464A52"/>
    </g>
    <defs>
        <clipPath id="clip0_143_23">
            <rect width="14" height="14" fill="white"/>
        </clipPath>
    </defs>
</svg>
